<?xml version="1.0" encoding="utf-8"?>
<!-- Generator: Adobe Illustrator 26.3.1, SVG Export Plug-In . SVG Version: 6.00 Build 0)  -->
<svg version="1.1" id="Layer_1" xmlns="http://www.w3.org/2000/svg" xmlns:xlink="http://www.w3.org/1999/xlink" x="0px" y="0px"
	 viewBox="0 0 376.9 150.8" style="enable-background:new 0 0 376.9 150.8;" xml:space="preserve">
<style type="text/css">
	.st0{fill-rule:evenodd;clip-rule:evenodd;fill:#E42528;}
	.st1{fill-rule:evenodd;clip-rule:evenodd;fill:#264493;}
	.st2{fill:#264493;}
</style>
<g>
	<g>
		<path class="st0" d="M109.2,62.7c4.8-16.3,16.1-60.1,16.1-60.1h-21.7c0,0-9.5,37.3-14.1,53.6C85.4,71,76.3,68.5,76.3,68.5
			c-9.1-1.1-5.6-12.1-5.6-12.1c4.3-16.5,14-53.8,14-53.8H63c0,0-9.9,37.2-14.2,53.6c0,0-7.7,25.1,21.2,27.6
			C70.1,83.8,101.3,89.4,109.2,62.7"/>
		<polygon class="st0" points="57.7,2.6 4.9,2.6 0,20 18.5,20 1.3,84.3 24.1,84.3 41.3,20 53,20 		"/>
		<polygon class="st0" points="200.8,39.7 222.3,84.3 200.5,84.3 177.6,36.6 207.6,2.6 233.7,2.6 		"/>
		<path class="st0" d="M147.3,52.5c5.9,12.3,15.3,31.7,15.3,31.7h-21l-20.9-44.5h19.4c0,0,10.6,0.1,11.4-10.4c0,0,1.6-8.2-7.8-9.3
			h-17.8l4.8-17.4h17.8c0,0,26-0.8,25.2,26.3C173.8,28.8,172.8,49.9,147.3,52.5"/>
		<polygon class="st0" points="342.5,48.6 355.1,2.6 376.9,2.6 355,84.3 333.2,84.3 319.1,38.6 306.9,84.3 285.1,84.3 307.1,2.6 
			328.8,2.6 		"/>
		<path class="st0" d="M273,3.1c0,0-31.6-5.6-39.6,21.1c-3.2,10.9-6,21-7.5,26.5c-0.6,1.9-1.2,3.8-1.7,5.5c0,0-7.8,25.1,21.5,27.6
			c0,0,31.6,5.6,39.6-21.1c0.6-2,1.2-4.1,1.8-6.1c1-3.2,3.9-12.7,7.3-25.9C294.5,30.7,302.2,5.6,273,3.1z M252.1,68.5
			c-9.2-1.1-6.2-12.2-6.2-12.2c1.9-7.2,4.6-15.4,6.5-22.4c0.3-1.1,0.6-2.2,0.9-3.2c4.2-14.8,13.4-12.3,13.4-12.3
			c9.2,1.1,5.7,12.1,5.7,12.1c-1.7,6.3-3.9,14.6-6,22.5c-0.3,1-0.6,2.1-0.9,3.1C261.3,71,252.1,68.5,252.1,68.5z"/>
		<path class="st1" d="M21.3,103.8c0,0,29.4,18.3,74.6,5.8c18.5-5.1,52.3-16.1,76.8-2.2l-8.4,32c0,0-25.7-13.1-70.9-0.1
			c-19.2,5.5-40.1,8.3-81.2-1.3L21.3,103.8z"/>
		<path class="st2" d="M191.8,95.2h5.5l-12.7,47.5h25.7l-1.4,5.5h-31.3L191.8,95.2z"/>
		<path class="st2" d="M233.8,95.2h5.3l-14.2,53h-5.3L233.8,95.2z"/>
		<path class="st2" d="M292,95.2l-14.2,53h-2.9l-23.2-40.7l-10.9,40.7h-5.7l14.2-53h2.2l23.6,41.6l11.1-41.6H292z"/>
		<path class="st2" d="M302.7,95.2h33.4l-1.4,5.5h-27.8l-4.5,16.8H324l-1.5,5.5h-21.6l-5.2,19.6h27.6l-1.5,5.5h-33.3L302.7,95.2z"/>
	</g>
</g>
</svg>
