<svg xmlns="http://www.w3.org/2000/svg" width="62.172" height="32.69"
viewBox="0 0 62.172 32.69">
<g id="Group_409" data-name="Group 409" transform="translate(0.698 0.5)">
    <g id="Group_385" data-name="Group 385" transform="translate(0 0.867)">
        <path id="Path_276" data-name="Path 276"
            d="M51.62-75.42v4.88h2.92l2.49-3.07h3.28v-1.81Z"
            transform="translate(-7 91.353)" fill="none" stroke="#fff"
            stroke-linecap="round" stroke-linejoin="round" stroke-width="1" />
        <rect id="Rectangle_1166" data-name="Rectangle 1166" width="8.692" height="4.886"
            transform="translate(35.923 15.932)" fill="none" stroke="#fff"
            stroke-linecap="round" stroke-linejoin="round" stroke-width="1" />
        <rect id="Rectangle_1167" data-name="Rectangle 1167" width="8.692" height="4.886"
            transform="translate(27.231 15.932)" fill="none" stroke="#fff"
            stroke-linecap="round" stroke-linejoin="round" stroke-width="1" />
        <rect id="Rectangle_1168" data-name="Rectangle 1168" width="8.69" height="4.88"
            transform="translate(18.54 15.933)" fill="none" stroke="#fff"
            stroke-linecap="round" stroke-linejoin="round" stroke-width="1" />
        <rect id="Rectangle_1169" data-name="Rectangle 1169" width="8.692" height="4.886"
            transform="translate(44.615 11.047)" fill="none" stroke="#fff"
            stroke-linecap="round" stroke-linejoin="round" stroke-width="1" />
        <rect id="Rectangle_1170" data-name="Rectangle 1170" width="8.692" height="4.886"
            transform="translate(35.923 11.047)" fill="none" stroke="#fff"
            stroke-linecap="round" stroke-linejoin="round" stroke-width="1" />
        <rect id="Rectangle_1171" data-name="Rectangle 1171" width="8.692" height="4.886"
            transform="translate(27.231 11.047)" fill="none" stroke="#fff"
            stroke-linecap="round" stroke-linejoin="round" stroke-width="1" />
        <rect id="Rectangle_1172" data-name="Rectangle 1172" width="8.69" height="4.89"
            transform="translate(18.54 11.043)" fill="none" stroke="#fff"
            stroke-linecap="round" stroke-linejoin="round" stroke-width="1" />
        <rect id="Rectangle_1173" data-name="Rectangle 1173" width="8.69" height="4.88"
            transform="translate(5.79 15.933)" fill="none" stroke="#fff"
            stroke-linecap="round" stroke-linejoin="round" stroke-width="1" />
        <rect id="Rectangle_1174" data-name="Rectangle 1174" width="8.69" height="4.89"
            transform="translate(5.79 11.043)" fill="none" stroke="#fff"
            stroke-linecap="round" stroke-linejoin="round" stroke-width="1" />
        <path id="Path_277" data-name="Path 277"
            d="M44.15-70.53l1.72,7.59a7.337,7.337,0,0,1,.81-.05c3.06,0,5.54,2.46,9.92,2.46s4.8-3.2,9.94-3.2,9.67,2.81,14.62,2.81,5.45-2.81,11.33-2.81a21.34,21.34,0,0,1,3.13.22l6.05-10.1H90.92l-2.49,3.07-.01.01H59.43V-80.7l2.3-2.31v-3.45H52.7v3.45l2.5,2.31v.39h.17v9.77H55.2v.01Z"
            transform="translate(-40.89 91.353)" fill="none" stroke="#fff"
            stroke-linecap="round" stroke-linejoin="round" stroke-width="1" />
        <path id="Path_278" data-name="Path 278" d="M90.62-70.54v-9.77"
            transform="translate(-76.31 91.353)" fill="none" stroke="#fff"
            stroke-linecap="round" stroke-linejoin="round" stroke-width="1" />
        <line id="Line_63" data-name="Line 63" y1="4.889" transform="translate(16.311)"
            fill="none" stroke="#fff" stroke-linecap="round" stroke-linejoin="round"
            stroke-width="1" />
        <path id="Path_279" data-name="Path 279"
            d="M104.93-62.94a11.685,11.685,0,0,0-4.98,1.93"
            transform="translate(-99.95 91.353)" fill="none" stroke="#fff"
            stroke-linecap="round" stroke-linejoin="round" stroke-width="1" />
        <path id="Path_280" data-name="Path 280" d="M50.2-61.53a15.68,15.68,0,0,0-6.05-1.98"
            transform="translate(10.58 91.353)" fill="none" stroke="#fff"
            stroke-linecap="round" stroke-linejoin="round" stroke-width="1" />
    </g>
    <path id="Path_282" data-name="Path 282"
        d="M7.178,0a7.178,7.178,0,1,0,7.178,7.178A7.178,7.178,0,0,0,7.178,0Z"
        transform="translate(35.923 0)" fill="#d9000d" stroke="#fff" stroke-linecap="round"
        stroke-width="1" />
    <path id="Path_281" data-name="Path 281" d="M65.973-88.909v3.867l-4.144,3.254"
        transform="translate(-22.872 92.22)" fill="none" stroke="#fff"
        stroke-linecap="round" stroke-linejoin="round" stroke-width="1" />
</g>
</svg>