<svg xmlns="http://www.w3.org/2000/svg" width="62.172" height="31.823" viewBox="0 0 62.172 31.823">
    <g id="Group_393" data-name="Group 393" transform="translate(0.698 0.5)">
      <path id="Path_285" data-name="Path 285" d="M131.51-75.42v4.88h2.93l2.48-3.07h3.28v-1.81Z" transform="translate(-86.9 91.353)" fill="none" stroke="#fff" stroke-linecap="round" stroke-linejoin="round" stroke-width="1"/>
      <rect id="Rectangle_1176" data-name="Rectangle 1176" width="8.692" height="4.886" transform="translate(35.916 15.932)" fill="none" stroke="#fff" stroke-linecap="round" stroke-linejoin="round" stroke-width="1"/>
      <rect id="Rectangle_1177" data-name="Rectangle 1177" width="8.692" height="4.886" transform="translate(27.223 15.932)" fill="none" stroke="#fff" stroke-linecap="round" stroke-linejoin="round" stroke-width="1"/>
      <rect id="Rectangle_1178" data-name="Rectangle 1178" width="8.69" height="4.88" transform="translate(18.53 15.933)" fill="none" stroke="#fff" stroke-linecap="round" stroke-linejoin="round" stroke-width="1"/>
      <rect id="Rectangle_1179" data-name="Rectangle 1179" width="8.692" height="4.886" transform="translate(44.608 11.047)" fill="none" stroke="#fff" stroke-linecap="round" stroke-linejoin="round" stroke-width="1"/>
      <rect id="Rectangle_1180" data-name="Rectangle 1180" width="8.692" height="4.886" transform="translate(35.916 1.047)" fill="#d9000d" stroke="#fff" stroke-linecap="round" stroke-linejoin="round" stroke-width="1"/>
      <rect id="Rectangle_1181" data-name="Rectangle 1181" width="8.692" height="4.886" transform="translate(27.223 11.047)" fill="none" stroke="#fff" stroke-linecap="round" stroke-linejoin="round" stroke-width="1"/>
      <rect id="Rectangle_1182" data-name="Rectangle 1182" width="8.69" height="4.89" transform="translate(18.53 11.043)" fill="none" stroke="#fff" stroke-linecap="round" stroke-linejoin="round" stroke-width="1"/>
      <rect id="Rectangle_1183" data-name="Rectangle 1183" width="8.69" height="4.88" transform="translate(5.78 15.933)" fill="none" stroke="#fff" stroke-linecap="round" stroke-linejoin="round" stroke-width="1"/>
      <rect id="Rectangle_1184" data-name="Rectangle 1184" width="8.69" height="4.89" transform="translate(5.78 11.043)" fill="none" stroke="#fff" stroke-linecap="round" stroke-linejoin="round" stroke-width="1"/>
      <path id="Path_286" data-name="Path 286" d="M124.03-70.53l1.72,7.59a7.336,7.336,0,0,1,.81-.05c3.06,0,5.55,2.46,9.92,2.46s4.8-3.2,9.94-3.2,9.67,2.81,14.62,2.81,5.45-2.81,11.33-2.81a21.339,21.339,0,0,1,3.13.22l6.06-10.1H170.8l-2.48,3.07-.01.01h-29V-80.7l2.31-2.31v-3.45h-9.03v3.45l2.5,2.31v.39h.16v9.77h-.16v.01Z" transform="translate(-120.78 91.353)" fill="none" stroke="#fff" stroke-linecap="round" stroke-linejoin="round" stroke-width="1"/>
      <path id="Path_287" data-name="Path 287" d="M170.5-70.54v-9.77" transform="translate(-156.19 91.353)" fill="none" stroke="#fff" stroke-linecap="round" stroke-linejoin="round" stroke-width="1"/>
      <line id="Line_76" data-name="Line 76" y1="4.889" transform="translate(16.304 0)" fill="none" stroke="#fff" stroke-linecap="round" stroke-linejoin="round" stroke-width="1"/>
      <path id="Path_288" data-name="Path 288" d="M184.81-62.94a11.681,11.681,0,0,0-4.97,1.93" transform="translate(-179.84 91.353)" fill="none" stroke="#fff" stroke-linecap="round" stroke-linejoin="round" stroke-width="1"/>
      <path id="Path_289" data-name="Path 289" d="M130.09-61.53a15.691,15.691,0,0,0-6.06-1.98" transform="translate(-69.31 91.353)" fill="none" stroke="#fff" stroke-linecap="round" stroke-linejoin="round" stroke-width="1"/>
      <path id="Path_290" data-name="Path 290" d="M147.656-82.8l-3.067,3.067-3.148-3.148" transform="translate(-104.286 91.353)" fill="none" stroke="#fff" stroke-linecap="round" stroke-linejoin="round" stroke-width="1"/>
    </g>
  </svg>
  